# xmcd
#
# Track frame offsets:
#	150
#	16152
#	31077
#	45010
#	54782
#	68372
#	80182
#	92922
#	105337
#	117877
#	134772
#	149082
#	162132
#	171800
#	187455
#	199060
#	210417
#
# Disc length: 2977 seconds
#
# Revision: 1
# Processed by: cddbd v1.5PL3 Copyright (c) Steve Scherf et al.
# Submitted via: EasyCDDAExtractor 5.0.6
#
DISCID=e20b9f11
DTITLE=鳳飛飛 - 鳳飛飛專輯4
DYEAR=1900
DGENRE=POP
TTITLE0=寒星
TTITLE1=我不能沒信心
TTITLE2=愛要讓他知道
TTITLE3=城裡比鄉下好
TTITLE4=叮嚀
TTITLE5=幸福已來到
TTITLE6=情思夢回
TTITLE7=野玫瑰
TTITLE8=生命的花環
TTITLE9=銀浪
TTITLE10=天長地久
TTITLE11=落葉飄飄
TTITLE12=五月花
TTITLE13=愛情如水向東流
TTITLE14=愛人頂呱呱
TTITLE15=明日君再來
TTITLE16=保鏢(張玲唱)
EXTD=
EXTT0=
EXTT1=
EXTT2=
EXTT3=
EXTT4=
EXTT5=
EXTT6=
EXTT7=
EXTT8=
EXTT9=
EXTT10=
EXTT11=
EXTT12=
EXTT13=
EXTT14=
EXTT15=
EXTT16=
PLAYORDER=
